<?xml version="1.0" standalone="no"?>
<!DOCTYPE svg PUBLIC "-//W3C//DTD SVG 20010904//EN"
 "http://www.w3.org/TR/2001/REC-SVG-20010904/DTD/svg10.dtd">
<svg version="1.0" xmlns="http://www.w3.org/2000/svg"
 width="980.000000pt" height="870.000000pt" viewBox="0 0 980.000000 870.000000"
 preserveAspectRatio="xMidYMid meet">

<g transform="translate(0.000000,870.000000) scale(0.100000,-0.100000)"
fill="#FFFFFF" stroke="none">
<path d="M1392 8689 c-120 -20 -234 -102 -293 -211 -33 -60 -34 -67 -34 -168
0 -100 1 -108 34 -168 43 -78 104 -135 189 -175 l67 -32 3610 0 3610 0 57 23
c76 31 150 99 185 170 25 51 28 67 27 157 0 91 -3 107 -31 168 -61 130 -171
213 -313 236 -81 14 -7029 13 -7108 0z"/>
<path d="M840 7258 c-5 -13 -197 -504 -426 -1093 l-415 -1070 5 -85 c28 -394
284 -764 662 -957 190 -97 350 -135 564 -136 221 0 405 40 582 129 364 182
614 537 651 924 3 41 2 44 35 -112 123 -582 715 -1001 1326 -938 61 6 147 20
192 30 426 100 769 424 879 831 14 52 28 124 32 162 3 37 7 66 9 65 1 -2 9
-44 18 -94 40 -236 155 -453 331 -629 266 -267 638 -402 1005 -366 325 33 570
147 785 366 184 187 299 426 322 670 l7 70 17 -98 c24 -137 51 -220 109 -334
171 -340 499 -584 888 -659 103 -20 314 -23 418 -6 478 79 844 412 940 854 9
40 18 123 21 184 l6 111 -439 1101 -439 1102 -4038 0 -4037 0 -10 -22z"/>
<path d="M4800 3784 c-753 -91 -1327 -562 -1466 -1204 -26 -119 -26 -390 0
-510 75 -347 288 -661 597 -883 190 -136 466 -250 719 -298 107 -20 156 -24
340 -23 184 0 232 3 335 23 675 132 1182 588 1311 1181 26 119 26 391 0 510
-127 587 -626 1042 -1290 1176 -98 20 -159 26 -316 29 -107 2 -211 1 -230 -1z
m525 -174 c536 -114 963 -470 1110 -924 42 -131 50 -185 50 -361 0 -176 -8
-230 -50 -361 -102 -315 -354 -601 -674 -768 -178 -92 -330 -141 -537 -172
-148 -22 -436 -14 -579 16 -416 88 -768 320 -977 645 -78 120 -136 262 -169
410 -9 37 -14 124 -14 230 0 176 8 230 50 361 159 491 645 865 1225 944 36 5
155 7 265 5 157 -2 222 -8 300 -25z"/>
<path d="M4810 3484 c-162 -28 -220 -42 -305 -71 -867 -298 -1133 -1244 -522
-1857 179 -179 417 -305 698 -368 90 -20 131 -23 304 -23 173 0 214 3 304 23
547 123 932 490 1016 970 68 390 -110 801 -460 1060 -83 61 -250 149 -355 187
-161 58 -270 76 -470 80 -102 2 -196 2 -210 -1z m421 -119 c391 -68 745 -330
886 -655 132 -305 103 -635 -79 -912 -138 -211 -372 -384 -631 -469 -468 -153
-996 -36 -1331 295 -285 281 -377 668 -246 1029 140 381 538 672 995 726 102
12 295 6 406 -14z"/>
<path d="M4787 3180 c-25 -20 -26 -26 -29 -132 -2 -87 -6 -112 -18 -118 -8 -4
-58 -28 -111 -53 -160 -77 -284 -211 -341 -369 -33 -91 -33 -275 0 -366 57
-158 181 -292 341 -369 53 -25 103 -49 111 -53 12 -6 16 -31 18 -118 3 -106 4
-112 29 -132 33 -26 73 -26 106 0 25 20 26 27 29 118 l3 97 60 0 60 0 5 -97
c6 -109 14 -125 73 -135 31 -5 40 -1 67 25 30 30 30 32 30 135 l0 105 67 27
c71 28 187 99 214 131 33 38 33 62 0 94 -41 42 -74 39 -141 -11 -69 -52 -107
-71 -195 -99 -99 -31 -261 -31 -359 0 -235 74 -376 249 -376 465 0 216 141
391 376 465 98 31 260 31 359 0 88 -28 126 -47 195 -99 67 -50 100 -53 141
-11 33 32 33 56 0 94 -27 32 -143 103 -214 131 l-67 27 0 105 c0 103 0 105
-30 135 -27 26 -36 30 -67 25 -59 -10 -67 -26 -73 -135 l-5 -97 -60 0 -60 0
-3 97 c-3 91 -4 98 -29 118 -33 26 -73 26 -106 0z"/>
<path d="M902 1803 l3 -1368 32 -68 c74 -156 206 -278 369 -339 l59 -23 3545
-3 c2519 -2 3563 0 3609 8 178 31 357 174 444 356 l32 69 3 1368 2 1367 -345
0 -345 0 0 -1260 0 -1260 -3345 0 -3345 0 0 1260 0 1260 -360 0 -360 0 2
-1367z"/>
</g>
</svg>
